<?xml version="1.0" standalone="no"?>
<!DOCTYPE svg PUBLIC "-//W3C//DTD SVG 20010904//EN"
 "http://www.w3.org/TR/2001/REC-SVG-20010904/DTD/svg10.dtd">
<svg version="1.0" xmlns="http://www.w3.org/2000/svg"
 width="373.000000pt" height="373.000000pt" viewBox="0 0 373.000000 373.000000"
 preserveAspectRatio="xMidYMid meet">
<metadata>
Created by potrace 1.11, written by Peter Selinger 2001-2013
</metadata>
<g transform="translate(0.000000,373.000000) scale(0.100000,-0.100000)"
fill="#000000" stroke="none">
<path d="M1520 3404 c-19 -2 -152 -13 -295 -24 -143 -11 -379 -29 -525 -40
-146 -12 -338 -24 -428 -27 -89 -3 -165 -10 -168 -14 -6 -11 8 -549 15 -549 8
1 51 69 51 81 0 5 4 9 8 9 5 0 17 18 27 39 10 22 23 42 30 45 7 2 17 25 24 50
6 25 16 46 22 46 15 0 86 76 95 102 7 25 62 81 87 91 9 3 14 13 11 21 -4 10 8
17 46 25 28 6 65 11 83 12 30 1 31 1 7 8 -27 8 8 12 295 30 88 5 182 13 208
17 35 5 51 3 57 -6 6 -9 13 -9 28 -1 13 7 97 11 231 11 147 0 210 3 213 11 5
15 335 15 528 0 74 -6 254 -13 400 -17 146 -3 269 -9 273 -11 10 -6 182 -15
314 -17 126 -1 115 -11 -37 -31 -19 -3 -127 -18 -240 -35 -113 -17 -252 -37
-310 -45 -58 -8 -150 -21 -205 -29 -64 -10 -145 -14 -225 -11 -78 2 -104 1
-70 -4 l55 -7 -40 -5 -40 -6 43 -1 c27 -1 45 -7 48 -17 4 -8 11 -15 17 -15 15
0 67 -51 67 -66 0 -6 11 -22 24 -35 23 -24 24 -30 25 -167 l1 -143 -217 7
c-259 8 -490 -7 -510 -34 -17 -21 -16 -35 1 -29 7 3 17 2 22 -3 5 -5 50 -11
99 -14 136 -9 248 -26 263 -40 10 -9 7 -22 -13 -64 -28 -57 -30 -66 -15 -57 6
3 10 1 10 -5 0 -7 8 -9 20 -5 11 4 20 2 20 -4 0 -6 6 -11 14 -11 8 0 17 -9 21
-19 3 -11 17 -26 30 -35 14 -9 25 -22 25 -29 0 -7 15 -30 34 -50 18 -20 31
-39 28 -42 -3 -3 1 -13 10 -22 18 -22 49 -103 43 -113 -3 -4 2 -28 11 -54 24
-71 8 -311 -22 -329 -8 -4 -14 -16 -14 -25 0 -9 -9 -23 -20 -30 -12 -7 -20
-23 -20 -40 -1 -31 -17 -55 -45 -66 -16 -6 -17 -9 -5 -16 11 -7 8 -10 -13 -10
-15 0 -26 -5 -25 -12 2 -6 -13 -15 -32 -20 -71 -18 -353 -67 -423 -73 -40 -4
-82 -11 -94 -17 -17 -8 -32 -7 -65 6 -55 20 -67 20 -90 -1 -17 -15 -20 -15
-48 12 -17 16 -30 34 -30 41 0 15 -32 78 -42 82 -5 2 -8 10 -8 19 0 8 -12 29
-26 48 -17 23 -27 50 -30 86 -5 64 -12 89 -25 89 -6 0 -6 8 1 20 25 47 -9 14
-60 -58 l-55 -77 0 -179 c0 -148 3 -180 15 -187 8 -5 88 -34 178 -65 152 -53
192 -74 140 -74 -23 0 -361 -54 -578 -92 -186 -32 -447 -59 -402 -41 22 9 12
23 -16 23 -35 0 -62 27 -62 63 0 15 -4 27 -9 27 -5 0 -7 8 -4 18 3 12 -4 22
-21 30 -16 7 -26 20 -26 32 0 15 -7 20 -24 20 -21 0 -25 5 -28 35 -2 24 -7 32
-15 27 -9 -5 -13 -56 -13 -172 -2 -163 -2 -164 22 -173 12 -5 93 -34 178 -64
85 -30 171 -60 190 -68 43 -16 291 -104 500 -178 85 -30 245 -89 355 -130 630
-236 878 -326 888 -320 4 2 7 113 7 247 0 134 3 297 6 363 l7 120 89 54 c49
30 102 64 118 77 15 12 35 22 44 22 9 0 34 11 57 25 24 16 58 27 88 29 27 2
53 6 59 10 19 11 95 16 107 6 9 -7 21 -6 40 4 16 8 41 12 55 9 15 -3 30 -1 34
5 7 11 -59 26 -74 17 -6 -3 -10 -2 -10 3 0 5 -29 15 -65 22 -36 7 -65 16 -65
21 0 5 -7 9 -15 9 -8 0 -60 10 -115 21 -98 21 -124 39 -65 45 17 1 53 8 81 15
42 9 58 9 83 -2 17 -8 31 -16 31 -19 0 -3 7 -13 14 -23 12 -16 19 -14 97 29
46 25 86 48 89 51 10 9 -25 21 -84 27 -70 7 -263 46 -381 76 -44 12 -90 24
-103 27 -23 5 -23 6 7 24 17 10 31 23 31 29 0 5 6 10 13 10 17 1 67 46 67 61
0 25 53 69 82 69 17 0 33 8 40 20 10 15 24 20 55 20 23 0 45 -5 48 -10 3 -6
15 -10 26 -10 10 0 19 -4 19 -8 0 -5 11 -14 25 -20 14 -6 25 -18 25 -27 0 -8
6 -15 14 -15 28 0 66 -48 68 -87 l1 -38 7 45 7 45 1 -51 c1 -27 8 -59 16 -69
12 -17 14 -16 19 16 3 19 6 99 6 179 1 80 4 254 7 387 6 209 9 243 23 249 14
5 13 7 -4 14 -15 7 -11 9 20 9 29 1 36 -2 25 -9 -26 -16 10 -40 72 -49 31 -4
63 -15 73 -24 9 -9 22 -17 29 -17 7 0 36 -26 63 -58 28 -31 63 -64 78 -72 40
-21 85 -68 85 -90 0 -10 9 -20 20 -23 11 -3 24 -16 29 -30 5 -14 14 -26 18
-28 5 -2 26 -39 47 -81 22 -43 43 -78 47 -78 5 0 10 -15 10 -32 l2 -33 7 35 7
35 3 -40 3 -40 7 50 c4 28 9 358 11 735 1 377 3 717 3 755 l1 70 -105 1 c-112
2 -268 8 -575 24 -104 6 -284 15 -400 20 -115 6 -277 15 -360 20 -174 11 -624
20 -675 14z m1330 -2214 c0 -5 -5 -10 -11 -10 -5 0 -7 5 -4 10 3 6 8 10 11 10
2 0 4 -4 4 -10z"/>
<path d="M982 2503 c2 -106 2 -107 5 -23 3 51 9 87 16 92 9 6 9 8 -2 8 -7 0
-11 6 -7 15 3 8 1 15 -4 15 -6 0 -9 -43 -8 -107z"/>
<path d="M2978 1183 c6 -2 18 -2 25 0 6 3 1 5 -13 5 -14 0 -19 -2 -12 -5z"/>
<path d="M3363 1107 c15 -6 27 -15 27 -19 0 -5 7 -25 17 -46 9 -20 15 -41 14
-46 -1 -5 6 -6 15 -2 12 5 15 2 10 -10 -5 -13 -1 -12 27 4 17 10 58 34 90 52
32 18 56 34 53 37 -5 6 -244 43 -266 42 -8 -1 -3 -6 13 -12z"/>
</g>
</svg>
